<?xml version="1.0" encoding="UTF-8" standalone="no"?>
<!-- Created with Inkscape (http://www.inkscape.org/) -->

<svg
   xmlns:dc="http://purl.org/dc/elements/1.1/"
   xmlns:cc="http://creativecommons.org/ns#"
   xmlns:rdf="http://www.w3.org/1999/02/22-rdf-syntax-ns#"
   xmlns:svg="http://www.w3.org/2000/svg"
   xmlns="http://www.w3.org/2000/svg"
   xmlns:sodipodi="http://sodipodi.sourceforge.net/DTD/sodipodi-0.dtd"
   xmlns:inkscape="http://www.inkscape.org/namespaces/inkscape"
   width="684"
   height="640"
   id="svg2"
   sodipodi:version="0.32"
   inkscape:version="0.47 r22583"
   version="1.0"
   sodipodi:docname="Mad_scientist_mod.svg"
   inkscape:export-filename="/home/pjk/Downloads/Mad_scientist_mod.png"
   inkscape:export-xdpi="14.078947"
   inkscape:export-ydpi="14.078947">
  <defs
     id="defs4">
    <inkscape:perspective
       sodipodi:type="inkscape:persp3d"
       inkscape:vp_x="0 : 320 : 1"
       inkscape:vp_y="0 : 1000 : 0"
       inkscape:vp_z="684 : 320 : 1"
       inkscape:persp3d-origin="342 : 213.33333 : 1"
       id="perspective76" />
  </defs>
  <sodipodi:namedview
     id="base"
     pagecolor="#ffffff"
     bordercolor="#666666"
     borderopacity="1.0"
     inkscape:pageopacity="0"
     inkscape:pageshadow="2"
     inkscape:zoom="1.789889"
     inkscape:cx="348.77663"
     inkscape:cy="492.11518"
     inkscape:document-units="px"
     inkscape:current-layer="layer1"
     inkscape:window-width="1363"
     inkscape:window-height="1102"
     inkscape:window-x="0"
     inkscape:window-y="25"
     showgrid="false"
     inkscape:window-maximized="0" />
  <metadata
     id="metadata7">
    <rdf:RDF>
      <cc:Work
         rdf:about="">
        <dc:format>image/svg+xml</dc:format>
        <dc:type
           rdf:resource="http://purl.org/dc/dcmitype/StillImage" />
        <dc:title></dc:title>
      </cc:Work>
    </rdf:RDF>
  </metadata>
  <g
     inkscape:label="Layer 1"
     inkscape:groupmode="layer"
     id="layer1">
    <g
       id="g2882"
       transform="translate(-16,-8)">
      <path
         sodipodi:nodetypes="cssssccsssscssccccscsccsssc"
         id="path3374"
         d="m 356.50051,402.28541 c 0,0 24.59827,3.86614 24.9935,28.11766 0.0109,0.68268 56.23533,16.24578 78.10463,14.9961 21.86927,-1.24967 49.3621,-20.61963 56.86015,-26.868 7.49805,-6.24836 19.99479,-16.24576 23.74381,-29.36734 3.74901,-13.12158 5.62353,-28.11765 5.62353,-28.11765 l 32.49151,4.99868 c 0,0 1.24969,3.12421 -1.24966,14.37127 -2.49935,11.24706 -7.49805,26.24315 -14.9961,39.98955 -7.49804,13.74642 -18.78943,36.51589 -31.86669,45.61311 -14.37124,9.99739 -36.24052,18.74511 -47.48761,20.61963 -19.19564,3.19927 -48.73727,0.62483 -48.73727,0.62483 0,0 2.49934,31.24185 0,56.86015 -2.49936,25.61832 -6.87321,58.73468 -9.99741,71.85626 -3.12418,13.12158 -6.87319,25.61833 -6.87319,25.61833 l -6.87321,15.62092 -111.84583,4.99868 3.74904,-23.11896 c 0,0 -1.24969,-79.3543 -2.49935,-96.84975 -1.24969,-17.49542 1.8745,-39.36471 1.8745,-39.36471 0,0 -39.98956,27.49283 -73.73076,23.7438 -42.4522,-4.71688 -85.60267,-31.86667 -85.60267,-31.86667 l 29.36734,-32.49154 c 0,0 29.99217,24.36866 55.6105,23.74379 25.61831,-0.62482 39.98957,-6.87318 51.86146,-14.37123 11.8719,-7.49804 29.36734,-18.7451 31.86669,-23.7438 2.49935,-4.99871 3.74901,-13.74642 3.74901,-13.74642"
         style="fill:#faf6e6;fill-opacity:1;fill-rule:evenodd;stroke:#000000;stroke-width:14.93623066;stroke-linecap:round;stroke-linejoin:round;stroke-miterlimit:4;stroke-opacity:1;stroke-dasharray:none" />
      <path
         id="path3438"
         d="m 45.566037,283.86992 0,-58.37022 c 0,0 -8.19231,-10.24039 -7.16827,-13.82453 1.024037,-3.58414 0.51202,-13.82451 17.92068,-16.38462 17.408663,-2.56009 34.305306,-7.68028 44.033673,-1.53605 9.72838,6.14423 9.72838,10.75241 7.6803,15.87259 -2.04808,5.1202 -8.704335,9.72839 -8.704335,9.72839 l -3.584136,61.95435 -6.656253,104.96398 -9.72837,35.32934 -22.016839,-1.02403 -8.704331,-17.92068 -3.072119,-118.78852 z"
         style="fill:#72caba;fill-opacity:1;fill-rule:evenodd;stroke:#000000;stroke-width:12.94473362;stroke-linecap:round;stroke-linejoin:round;stroke-miterlimit:4;stroke-opacity:1;stroke-dasharray:none" />
      <path
         id="path3412"
         d="m 179.67165,514.13123 c 5.62354,-4.37386 17.49544,-31.86669 17.49544,-31.86669 l -26.868,-19.99478 -20.61962,28.7425 23.11898,21.24446 6.8732,1.87451 z"
         style="fill:#c6c2a3;fill-opacity:1;fill-rule:evenodd;stroke:none" />
      <path
         sodipodi:nodetypes="cssscsccssscsscscsccsscscsccsscsccsccssccsccsccsccccccsscscsc"
         id="path1317"
         d="m 315.16414,432.34235 c 0,0 -1.97507,-7.90024 -20.73812,-6.91271 -18.76306,0.98752 -32.58844,13.82541 -44.43879,20.73812 -12.79511,7.46381 -37.52613,8.88775 -43.45128,-2.96258 -5.92519,-11.85035 0,-40.48871 0,-40.48871 0,0 -19.75059,-6.9127 -19.75059,-19.75057 0,-12.83789 14.81293,-18.76305 14.81293,-18.76305 l 6.9127,-18.76305 c 0,0 -15.80046,-9.87532 -19.75058,-21.72565 -3.95011,-11.85037 -2.96258,-10.86283 2.96259,-12.8379 5.92517,-1.97503 7.90024,0.98753 12.83787,-3.95011 4.93765,-4.93764 9.8753,-34.5635 9.8753,-34.5635 0,0 -14.81293,-11.85035 -10.86282,-33.576 3.95012,-21.72564 3.95012,-21.72564 7.90023,-26.66329 3.95011,-4.93766 10.86283,-11.85036 10.86283,-11.85036 0,0 -21.72565,-6.91269 -35.55105,-1.97505 -13.82541,4.93764 -38.51364,18.76306 -38.51364,18.76306 0,0 6.91269,-20.73811 14.81293,-35.55105 7.90024,-14.81294 49.37645,-47.4014 49.37645,-47.4014 l -67.15197,27.65081 c 0,0 9.87528,-20.73812 17.77552,-28.63834 7.90024,-7.90023 18.76305,-23.7007 29.62588,-29.62588 10.86282,-5.925173 26.66329,-10.86282 26.66329,-10.86282 0,0 -54.31411,-1.975058 -36.53859,-1.975058 17.77553,0 -29.62587,2.962588 -29.62587,2.962588 0,0 1.97505,-14.812938 26.66329,-27.650815 24.68822,-12.837879 58.26421,-19.750584 58.26421,-19.750584 l -60.23927,-4.937645 c 0,0 19.75058,-20.738113 44.43882,-20.738113 24.68823,0 41.47621,2.962588 53.32655,8.887763 11.85037,5.925174 18.76306,15.800467 18.76306,15.800467 0,0 10.86283,-15.800467 23.70071,-21.725642 12.83787,-5.925175 39.50116,-6.912703 39.50116,-6.912703 l -40.48868,29.625875 c 0,0 37.52611,-12.83788 54.31409,-12.83788 16.788,0 34.56354,6.912703 34.56354,6.912703 l -38.51366,11.850352 c 0,0 51.35153,0.987528 70.11457,6.912702 18.76306,5.925175 32.58848,11.850351 45.42634,21.725643 12.83788,9.875289 16.788,23.700697 16.788,23.700697 l -49.37645,-6.912703 c 0,0 33.57599,7.900233 42.46375,27.650823 8.88775,19.75058 6.9127,34.56352 6.9127,34.56352 l -36.53858,-17.77554 c 0,0 17.77553,19.75059 19.75058,35.55105 1.97506,15.80048 -0.98752,25.67576 -0.98752,25.67576 l -30.6134,-22.71316 c 0,0 8.88774,18.76305 7.90022,24.68823 -0.98752,5.92517 -1.97506,9.87528 -1.97506,9.87528 l -22.71317,-17.77551 10.86283,25.67575 -2.96259,5.92517 -14.81294,-14.81294 -3.95012,15.80047 c 0,0 16.78801,9.87529 19.7506,23.70071 2.96256,13.82539 -1.97507,21.72564 -6.91271,33.57599 -4.93766,11.85033 -7.90023,12.83786 -7.90023,12.83786 0,0 2.96257,14.81295 -3.95014,20.73813 -6.9127,5.92517 -19.75057,4.93763 -19.75057,4.93763 0,0 -5.92517,35.55106 -16.78799,46.41388 -10.86282,10.86283 -34.56353,30.6134 -34.56353,30.6134"
         style="fill:#d6d6d6;fill-opacity:1;fill-rule:evenodd;stroke:#000000;stroke-width:14.93623066;stroke-linecap:round;stroke-linejoin:round;stroke-miterlimit:4;stroke-opacity:1;stroke-dasharray:none" />
      <path
         id="path3356"
         d="m 218.26602,201.45124 -15.67124,36.04384 8.88037,33.43196 -5.74612,27.68585 -4.70137,10.96987 -13.58173,0 4.179,20.89498 12.0146,14.62648 -2.08949,18.28313 -12.53699,14.1041 -0.52238,16.71599 16.19362,12.0146 0.52236,25.59636 8.358,20.37261 25.07398,-1.04474 34.47672,-18.28312 31.34245,-4.70137 15.14888,4.17899 6.26849,3.65663 3.65663,6.79087 4.179,5.22374 7.31324,1.56713 6.79086,-4.179 13.05937,-12.53699 -8.358,-14.62649 -4.17898,-16.19361 3.65661,-8.358 28.20823,-20.89497 18.28309,-32.9096 10.96987,-13.05935 13.05937,-5.74613 8.88038,-20.3726 7.83562,-34.47673 -2.0895,-29.77536 -19.32787,3.65663 -15.14887,2.61188 -6.79086,4.70138 0,-12.53699 1.04476,-9.92512 -3.13426,-20.89498 -9.92511,-5.22376 -28.20822,4.70137 -55.3717,21.41737 -9.92512,5.22375 -16.716,-6.2685 -36.04383,-24.02923 -18.28312,-4.179 -1.04474,5.74613 z"
         style="fill:#f2d6c6;fill-opacity:1;fill-rule:evenodd;stroke:none" />
      <path
         id="path3349"
         d="m 284.27782,231.80654 c 0,0 -11.77249,14.71564 -18.836,22.36774 -7.06349,7.65213 -17.07012,20.60187 -17.07012,20.60187 0,0 -8.82935,5.29763 -14.7156,1.76588 -5.88625,-3.53175 -20.01324,-7.65213 -20.01324,-7.65213 l -12.94974,-25.89949 14.7156,-38.26061 8.82939,-8.24074 c 0,0 14.71561,2.3545 22.36774,7.06351 7.65211,4.70899 21.19049,14.12698 27.07674,18.24735 5.88622,4.12037 11.77247,10.59525 10.59523,10.00662 z"
         style="fill:#fefefe;fill-opacity:1;fill-rule:evenodd;stroke:#000000;stroke-width:3.98299479;stroke-linecap:round;stroke-linejoin:round;stroke-miterlimit:4;stroke-opacity:1;stroke-dasharray:none" />
      <path
         sodipodi:nodetypes="cssscsccssscsscscsccsscscsccsscsccsccssccsccsccsccccccsscscsc"
         id="path3360"
         d="m 315.16414,432.34235 c 0,0 -1.97507,-7.90024 -20.73812,-6.91271 -18.76306,0.98752 -32.58844,13.82541 -44.43879,20.73812 -12.79511,7.46381 -37.52613,8.88775 -43.45128,-2.96258 -5.92519,-11.85035 0,-40.48871 0,-40.48871 0,0 -19.75059,-6.9127 -19.75059,-19.75057 0,-12.83789 14.81293,-18.76305 14.81293,-18.76305 l 6.9127,-18.76305 c 0,0 -15.80046,-9.87532 -19.75058,-21.72565 -3.95011,-11.85037 -2.96258,-10.86283 2.96259,-12.8379 5.92517,-1.97503 7.90024,0.98753 12.83787,-3.95011 4.93765,-4.93764 9.8753,-34.5635 9.8753,-34.5635 0,0 -14.81293,-11.85035 -10.86282,-33.576 3.95012,-21.72564 3.95012,-21.72564 7.90023,-26.66329 3.95011,-4.93766 10.86283,-11.85036 10.86283,-11.85036 0,0 -21.72565,-6.91269 -35.55105,-1.97505 -13.82541,4.93764 -38.51364,18.76306 -38.51364,18.76306 0,0 6.91269,-20.73811 14.81293,-35.55105 7.90024,-14.81294 49.37645,-47.4014 49.37645,-47.4014 l -67.15197,27.65081 c 0,0 9.87528,-20.73812 17.77552,-28.63834 7.90024,-7.90023 18.76305,-23.7007 29.62588,-29.62588 10.86282,-5.925173 26.66329,-10.86282 26.66329,-10.86282 0,0 -54.31411,-1.975058 -36.53859,-1.975058 17.77553,0 -29.62587,2.962588 -29.62587,2.962588 0,0 1.97505,-14.812938 26.66329,-27.650815 24.68822,-12.837879 58.26421,-19.750584 58.26421,-19.750584 l -60.23927,-4.937645 c 0,0 19.75058,-20.738113 44.43882,-20.738113 24.68823,0 41.47621,2.962588 53.32655,8.887763 11.85037,5.925174 18.76306,15.800467 18.76306,15.800467 0,0 10.86283,-15.800467 23.70071,-21.725642 12.83787,-5.925175 39.50116,-6.912703 39.50116,-6.912703 l -40.48868,29.625875 c 0,0 37.52611,-12.83788 54.31409,-12.83788 16.788,0 34.56354,6.912703 34.56354,6.912703 l -38.51366,11.850352 c 0,0 51.35153,0.987528 70.11457,6.912702 18.76306,5.925175 32.58848,11.850351 45.42634,21.725643 12.83788,9.875289 16.788,23.700697 16.788,23.700697 l -49.37645,-6.912703 c 0,0 33.57599,7.900233 42.46375,27.650823 8.88775,19.75058 6.9127,34.56352 6.9127,34.56352 l -36.53858,-17.77554 c 0,0 17.77553,19.75059 19.75058,35.55105 1.97506,15.80048 -0.98752,25.67576 -0.98752,25.67576 l -30.6134,-22.71316 c 0,0 8.88774,18.76305 7.90022,24.68823 -0.98752,5.92517 -1.97506,9.87528 -1.97506,9.87528 l -22.71317,-17.77551 10.86283,25.67575 -8.38886,14.96896 -9.38667,-23.85673 -3.95012,15.80047 c 0,0 16.78801,9.87529 19.7506,23.70071 2.96256,13.82539 -1.97507,21.72564 -6.91271,33.57599 -4.93766,11.85033 -7.90023,12.83786 -7.90023,12.83786 0,0 2.96257,14.81295 -3.95014,20.73813 -6.9127,5.92517 -19.75057,4.93763 -19.75057,4.93763 0,0 -5.92517,35.55106 -16.78799,46.41388 -10.86282,10.86283 -34.56353,30.6134 -34.56353,30.6134"
         style="fill:none;stroke:#000000;stroke-width:14.93623066;stroke-linecap:round;stroke-linejoin:round;stroke-miterlimit:4;stroke-opacity:1;stroke-dasharray:none" />
      <path
         sodipodi:nodetypes="ccccccccccccccccccccc"
         id="path2211"
         d="m 270.15082,287.7259 c 5.01379,-7.71128 11.22464,-15.17238 19.40049,-19.59069 9.87568,-3.06462 19.78435,6.16093 20.30919,15.85257 2.19507,10.31152 -9.76746,13.49496 -17.58602,13.5615 -10.59584,2.30942 -19.75642,8.32866 -28.62625,14.2342 -8.52519,4.70898 -18.58235,7.32853 -25.39929,14.56532 -6.29546,5.55594 -13.15043,-1.10952 -9.16588,-7.8557 3.47203,-17.1261 11.64963,-33.1038 22.87731,-46.42834 8.60908,-12.75653 20.10811,-23.39854 28.1356,-36.52625 3.03744,-4.16759 4.52755,-11.03871 -1.96313,-11.06794 -5.12728,-8.43285 2.10005,-14.67677 1.22036,-26.5595 -3.12584,-8.40681 -4.82122,-14.52545 -10.64637,-19.10673 -8.48996,-9.02484 -16.43886,-12.01128 -31.46057,-19.63709 -18.98159,-3.76415 -25.49662,-4.90019 -5.47739,4.21479 1.41532,8.97356 -14.74738,1.7333 -18.71464,7.70127 -7.94205,3.57723 10.87445,1.5843 6.86676,7.64783 -4.30244,-1.07271 -23.18705,13.11636 -8.39017,8.05012 7.14887,2.36533 12.76399,8.13483 19.7285,11.11159 6.84618,2.7936 14.37728,4.17291 20.21513,9.08139 7.52695,5.68396 14.65118,11.92003 22.72754,16.83067 1.28685,0.99702 2.51086,2.08151 3.60097,3.29264"
         style="fill:none;stroke:#000000;stroke-width:5.97449255;stroke-linecap:round;stroke-linejoin:round;stroke-miterlimit:4;stroke-opacity:1;stroke-dasharray:none" />
      <path
         sodipodi:nodetypes="ccccccccccccccccccc"
         id="path3102"
         d="m 270.15082,248.28803 c 8.13392,-5.39434 14.03345,-13.34327 21.36594,-19.67001 7.85449,-1.4624 15.72481,-5.58482 18.04683,-13.77177 5.12106,-8.38859 12.05736,-15.46976 17.57327,-23.59601 4.1597,-5.85029 9.80308,-10.30349 15.53033,-14.47879 5.23332,-4.83807 10.63709,-9.90702 17.64137,-11.95887 12.62878,-5.46735 26.62103,-8.25726 40.37188,-6.70842 -6.05622,2.59819 -15.35564,2.72117 -18.79257,8.37764 5.96043,-0.18387 11.9433,0.85681 18.01315,1.36375 5.88258,-0.22456 3.81366,1.28003 15.66323,7.38687 -3.25845,5.64415 -10.99629,-1.53332 -15.77013,1.93341 -2.09817,3.07838 6.73656,4.96742 8.36237,8.37462 3.58004,2.71521 7.56184,10.86359 -0.37371,8.1581 -9.91538,-3.38869 -11.23488,-1.45541 -4.90328,6.85978 5.7829,8.56725 -9.01824,-0.60627 -13.278,-0.45741 -9.06787,-2.24679 -18.43557,-0.53662 -27.58234,0.24526 -9.68107,3.73887 -16.69251,6.08418 -24.51303,9.98411 -7.1384,4.05726 -13.96694,6.51009 -21.48204,9.67026 -5.56323,0.65894 -9.30238,6.00299 -14.96465,6.32905"
         style="fill:#d6d6d6;fill-opacity:1;fill-rule:evenodd;stroke:#000000;stroke-width:5.97449255;stroke-linecap:round;stroke-linejoin:round;stroke-miterlimit:4;stroke-opacity:1;stroke-dasharray:none" />
      <path
         sodipodi:nodetypes="ccccccccc"
         id="path3108"
         d="m 301.93655,225.33168 c -5.86884,2.4769 -8.09792,9.28578 -8.40983,15.17556 -2.47439,9.76614 3.6971,18.83796 9.36314,26.19641 3.92752,5.04171 10.30758,7.95046 16.67372,7.71402 10.12071,1.69855 19.81403,-0.15365 30.53007,-3.29492 7.60085,-5.61416 17.14925,-9.25406 22.2012,-17.70557 4.27885,-7.29787 7.7001,-15.34015 8.81129,-23.77682 1.11995,-7.94477 -1.47759,-16.38059 -7.62155,-21.71579 -2.52254,-2.0057 -7.51948,-7.1024 -9.7424,-6.13788 l -61.80564,23.54499 z"
         style="fill:#fefefe;fill-opacity:1;fill-rule:evenodd;stroke:#000000;stroke-width:5.97449255;stroke-linecap:butt;stroke-linejoin:round;stroke-miterlimit:4;stroke-opacity:1;stroke-dasharray:none" />
      <path
         id="path3124"
         d="m 351.38103,245.34493 c -9.2771,2.28816 -11.65061,-9.72264 -9.76155,-16.42445 0.1945,-8.12939 9.16809,-15.42391 16.80564,-10.7587 8.03197,3.40295 6.32177,16.88733 -2.60247,17.57132 -9.32923,2.27377 -6.97413,-13.98125 0.57429,-7.71246 0.86975,1.03863 1.07166,2.48282 0.87034,3.78592"
         style="fill:none;stroke:#000000;stroke-width:3.98299479;stroke-linecap:round;stroke-linejoin:round;stroke-miterlimit:4;stroke-opacity:1;stroke-dasharray:none" />
      <path
         id="path3126"
         d="m 229.53573,216.5023 c -2.83534,0.14438 -3.47327,3.64871 -1.76588,7.0635 1.63077,3.26154 5.62828,-2.01055 5.88625,-2.3545 2.45705,-3.27606 -2.52769,-4.39046 -4.12037,-4.709 z"
         style="fill:none;stroke:#000000;stroke-width:4.97874355;stroke-linecap:butt;stroke-linejoin:miter;stroke-miterlimit:4;stroke-opacity:1;stroke-dasharray:none" />
      <path
         sodipodi:nodetypes="cccc"
         id="path3128"
         d="m 297.81619,170.00094 c -0.74357,-12.62461 -0.61508,-18.77019 3.45302,-30.69269 1.52985,-3.93956 3.04924,-9.58437 5.74692,-12.27591 0.6179,-0.66861 5.00843,-5.71882 5.51567,-6.47585"
         style="fill:none;stroke:#929291;stroke-width:3.98299479;stroke-linecap:round;stroke-linejoin:round;stroke-miterlimit:4;stroke-opacity:1;stroke-dasharray:none" />
      <path
         id="path3136"
         d="m 304.87969,168.82372 c 2.74291,-6.48306 4.45989,-13.71684 9.46989,-18.941 3.56791,-3.72222 6.77563,-7.91348 11.14479,-10.75354 0.88853,-0.52089 1.89115,-0.89499 2.93029,-0.91395"
         style="fill:none;stroke:#929291;stroke-width:3.98299479;stroke-linecap:round;stroke-linejoin:round;stroke-miterlimit:4;stroke-opacity:1;stroke-dasharray:none" />
      <path
         sodipodi:nodetypes="ccccc"
         id="path3138"
         d="m 313.70906,170.00094 c 1.93057,-2.75592 3.51037,-6.03762 6.60529,-7.68672 2.94294,-3.36253 5.57648,-6.44545 9.85065,-9.01091 4.08294,-2.45483 8.69604,-3.10017 13.26616,-4.59637 2.39365,-1.03363 5.07631,-0.23871 7.36124,0.69216"
         style="fill:none;stroke:#929291;stroke-width:3.98299479;stroke-linecap:round;stroke-linejoin:round;stroke-miterlimit:4;stroke-opacity:1;stroke-dasharray:none" />
      <path
         id="path3148"
         d="m 277.80296,143.51285 c 1.34917,4.23201 5.16548,6.91476 7.39916,10.61342 2.72913,2.74845 3.55074,6.70378 4.09032,10.39773 0.43156,2.66298 0.80014,5.40131 2.04889,7.83147"
         style="fill:none;stroke:#929291;stroke-width:3.98299479;stroke-linecap:round;stroke-linejoin:round;stroke-miterlimit:4;stroke-opacity:1;stroke-dasharray:none" />
      <path
         id="path3152"
         d="m 263.08734,150.57634 c 3.23801,2.64566 7.95468,2.92824 10.70887,6.25095 5.11692,5.71947 8.71518,12.61141 11.65887,19.64854"
         style="fill:none;stroke:#929291;stroke-width:3.98299479;stroke-linecap:round;stroke-linejoin:round;stroke-miterlimit:4;stroke-opacity:1;stroke-dasharray:none" />
      <path
         sodipodi:nodetypes="czsssz"
         id="path3156"
         d="m 279.56883,63.459882 c 13.83268,-0.735782 21.19047,5.886247 27.07673,15.892868 5.88624,10.006619 4.12038,26.48812 -7.65212,34.14023 -11.77249,7.65212 -18.24738,8.82937 -34.72887,6.47487 -16.48149,-2.3545 -20.01323,-24.133609 -12.94973,-37.671977 7.06349,-13.538369 14.42131,-18.100211 28.25399,-18.835991 z"
         style="fill:#6a526e;fill-opacity:1;fill-rule:evenodd;stroke:#000000;stroke-width:3.98299479;stroke-linecap:round;stroke-linejoin:round;stroke-miterlimit:4;stroke-opacity:1;stroke-dasharray:none" />
      <path
         id="path3158"
         d="m 277.21433,80.529998 c 0,0 18.24735,-2.943122 17.07011,8.240747 -1.17724,11.183869 -6.47487,14.126995 -15.89286,12.949745 -9.41802,-1.17725 -17.07012,-2.943126 -15.89286,-8.829373 1.17723,-5.886247 4.12036,-8.82937 7.6521,-10.006619 3.53177,-1.17725 8.82938,-1.765875 7.06351,-2.3545 z"
         style="fill:#9696ce;fill-opacity:1;fill-rule:evenodd;stroke:#000000;stroke-width:3.98299479;stroke-linecap:round;stroke-linejoin:round;stroke-miterlimit:4;stroke-opacity:1;stroke-dasharray:none" />
      <path
         sodipodi:nodetypes="csssz"
         id="path3160"
         d="m 374.92603,81.118623 c -11.18386,-3.899639 -28.84262,-0.588625 -34.72887,12.361119 -5.88625,12.949748 -1.76588,28.253978 15.89287,35.906108 17.65875,7.65212 40.61512,-12.94975 38.26061,-25.89949 -2.35451,-12.94974 -8.24074,-18.468099 -19.42461,-22.367737 z"
         style="fill:#6a526e;fill-opacity:1;fill-rule:evenodd;stroke:#000000;stroke-width:3.98299479;stroke-linecap:round;stroke-linejoin:round;stroke-miterlimit:4;stroke-opacity:1;stroke-dasharray:none" />
      <path
         sodipodi:nodetypes="cssscc"
         id="path3162"
         d="m 371.39427,92.891117 c 0,0 -12.94973,-2.943123 -15.30424,5.886247 -2.35449,8.829366 5.88625,10.595246 12.36113,11.183866 6.47487,0.58863 11.77247,0.58863 12.94973,-5.88624 1.17725,-6.474874 -7.06348,-10.006623 -7.06348,-10.006623 l -2.94314,-1.17725 z"
         style="fill:#9696ce;fill-opacity:1;fill-rule:evenodd;stroke:#000000;stroke-width:3.98299479;stroke-linecap:round;stroke-linejoin:round;stroke-miterlimit:4;stroke-opacity:1;stroke-dasharray:none" />
      <path
         sodipodi:nodetypes="cscsc"
         id="path3168"
         d="m 393.76201,112.31573 c 0,0 13.53838,8.82937 14.127,18.83599 0.58862,10.00662 -2.94313,18.24738 -2.94313,18.24738 0,0 -2.3545,-11.77251 -7.0635,-16.4815 -4.70899,-4.709 -12.94972,-10.59525 -12.94972,-10.59525"
         style="fill:#6a526e;fill-opacity:1;fill-rule:evenodd;stroke:#000000;stroke-width:3.98299479;stroke-linecap:round;stroke-linejoin:round;stroke-miterlimit:4;stroke-opacity:1;stroke-dasharray:none" />
      <path
         id="path3170"
         d="m 210.69973,339.52487 c 0,0 13.53838,0 22.95637,5.88625 9.41799,5.88625 14.12698,10.00661 25.89947,10.00661 11.7725,0 24.72225,-11.7725 31.19712,-17.07011 6.47487,-5.29763 9.418,-0.58861 20.01325,-3.53175 10.59524,-2.94311 15.89287,-8.82937 22.36772,-15.89286 6.47488,-7.06351 7.0635,-14.71562 10.59524,-24.13361 3.53176,-9.41802 17.07012,-25.8995 22.95637,-25.8995 5.88625,0 20.01323,18.836 20.60187,24.13362 0.58862,5.29762 0,37.67198 -4.12037,47.6786 -4.12037,10.00661 -24.72223,33.55162 -32.96299,32.96298 -8.24074,-0.58862 -15.89287,-5.29762 -21.19049,-4.70899 -5.29762,0.58862 -30.60848,24.72223 -37.08335,25.31086 -6.47488,0.58862 -18.24735,-6.47488 -23.54497,-5.29763 -5.29763,1.17726 -8.8294,7.65211 -15.30427,7.65211 -6.47485,0 -12.3611,0 -16.4815,-3.53174 -4.12036,-3.53173 -2.35448,-8.82936 -10.00661,-11.18386 -7.65211,-2.3545 -11.77247,3.53175 -17.65873,-0.58863 -5.88625,-4.12038 -11.7725,-11.18388 -11.7725,-11.18388"
         style="fill:#ffffff;fill-opacity:1;fill-rule:evenodd;stroke:#000000;stroke-width:3.98299479;stroke-linecap:round;stroke-linejoin:round;stroke-miterlimit:4;stroke-opacity:1;stroke-dasharray:none" />
      <path
         id="path3172"
         d="m 236.5992,347.76563 -11.18383,32.37436"
         style="fill:none;stroke:#000000;stroke-width:3.98299479;stroke-linecap:round;stroke-linejoin:round;stroke-miterlimit:4;stroke-opacity:1;stroke-dasharray:none" />
      <path
         id="path3174"
         d="m 257.20109,356.00636 -2.94313,39.43787"
         style="fill:none;stroke:#000000;stroke-width:3.98299479;stroke-linecap:round;stroke-linejoin:round;stroke-miterlimit:4;stroke-opacity:1;stroke-dasharray:none" />
      <path
         id="path3176"
         d="m 283.10058,346.58837 5.29761,47.08997"
         style="fill:none;stroke:#000000;stroke-width:3.98299479;stroke-linecap:round;stroke-linejoin:round;stroke-miterlimit:4;stroke-opacity:1;stroke-dasharray:none" />
      <path
         id="path3178"
         d="m 310.76594,335.99313 8.82937,37.08335"
         style="fill:none;stroke:#000000;stroke-width:3.98299479;stroke-linecap:round;stroke-linejoin:round;stroke-miterlimit:4;stroke-opacity:1;stroke-dasharray:none" />
      <path
         id="path3180"
         d="m 334.31091,320.10025 22.36775,48.85586"
         style="fill:none;stroke:#000000;stroke-width:3.98299479;stroke-linecap:round;stroke-linejoin:round;stroke-miterlimit:4;stroke-opacity:1;stroke-dasharray:none" />
      <path
         id="path3182"
         d="m 346.67204,293.02352 35.31747,46.50135"
         style="fill:none;stroke:#000000;stroke-width:3.98299479;stroke-linecap:round;stroke-linejoin:round;stroke-miterlimit:4;stroke-opacity:1;stroke-dasharray:none" />
      <path
         id="path3184"
         d="m 380.22366,263.59227 c 0,0 12.94973,7.06351 16.48149,12.94976 3.53174,5.88625 4.12036,20.01323 4.12036,26.48811 0,6.47488 1.76587,24.1336 1.76587,24.1336"
         style="fill:none;stroke:#000000;stroke-width:3.98299479;stroke-linecap:round;stroke-linejoin:round;stroke-miterlimit:4;stroke-opacity:1;stroke-dasharray:none" />
      <path
         id="path3353"
         d="m 405.27612,281.37453 c 0,0 -0.5224,5.74614 4.17897,7.31324 4.70139,1.56712 8.88039,-1.04474 12.01463,-6.26848 3.13423,-5.22375 5.22373,-14.10412 3.13423,-17.76075 -2.08949,-3.6566 -7.83561,-10.44748 -12.01461,-9.40274 -4.17899,1.04476 -13.58171,6.79087 -13.05935,10.4475 0.52237,3.65663 6.79086,7.83561 6.79086,10.96987 0,3.13424 -0.52237,3.65662 -1.04473,4.70136 z"
         style="fill:#e2b28a;fill-opacity:1;fill-rule:evenodd;stroke:none" />
      <path
         sodipodi:nodetypes="csssc"
         id="path3186"
         d="m 394.93926,232.98379 c 0,0 -1.17723,15.89287 -2.94311,18.83598 -1.76589,2.94314 12.36112,-12.94973 21.77911,-12.3611 9.418,0.58863 10.59523,2.35449 18.83599,9.41799 8.24074,7.06351 11.77249,13.53837 11.77249,13.53837"
         style="fill:none;stroke:#000000;stroke-width:3.98299479;stroke-linecap:round;stroke-linejoin:round;stroke-miterlimit:4;stroke-opacity:1;stroke-dasharray:none" />
      <path
         sodipodi:nodetypes="cssscc"
         id="path3188"
         d="m 424.95911,266.53541 c 0,0 -4.12036,-10.59524 -9.41799,-10.59524 -5.29761,0 -17.65874,2.35448 -16.48148,11.18386 1.17725,8.82936 7.65213,7.65212 7.65213,13.53836 0,5.88625 -4.12039,11.18388 -4.12039,11.18388 l -1.73593,9.73723"
         style="fill:none;stroke:#000000;stroke-width:3.98299479;stroke-linecap:round;stroke-linejoin:round;stroke-miterlimit:4;stroke-opacity:1;stroke-dasharray:none" />
      <path
         id="path3208"
         d="m 343.7289,89.359369 c 0,0 -12.94973,-8.240746 -18.24734,-8.240746 -5.29763,0 -15.30424,3.531749 -15.30424,3.531749 l 0.58862,11.183869 c 0,0 10.00662,-1.17725 14.12698,0.588626 4.12037,1.765872 12.94975,7.063493 12.94975,7.063493 l 5.88623,-14.126991 z"
         style="fill:#6a526e;fill-opacity:1;fill-rule:evenodd;stroke:#000000;stroke-width:3.98299479;stroke-linecap:round;stroke-linejoin:round;stroke-miterlimit:4;stroke-opacity:1;stroke-dasharray:none" />
      <path
         id="path3367"
         d="m 205.99075,397.21008 13.53836,5.29762"
         style="fill:none;stroke:#000000;stroke-width:4.97874355;stroke-linecap:round;stroke-linejoin:round;stroke-miterlimit:4;stroke-opacity:1;stroke-dasharray:none" />
      <path
         sodipodi:nodetypes="csc"
         id="path3369"
         d="m 314.29768,280.07378 c 0,0 4.52795,3.45932 11.0028,2.87071 6.47488,-0.58862 13.50218,-2.79829 13.50218,-2.79829"
         style="fill:none;stroke:#e6b994;stroke-width:4.97874355;stroke-linecap:round;stroke-linejoin:round;stroke-miterlimit:4;stroke-opacity:1;stroke-dasharray:none" />
      <path
         sodipodi:nodetypes="cssssc"
         id="path3410"
         d="m 348.37764,401.66058 c -27.49283,31.24183 -21.86929,32.49152 -19.99478,36.24053 1.8745,3.74905 -1.87451,6.87322 4.37386,8.74774 6.24838,1.87449 11.24706,3.12418 19.99478,-6.24838 8.74772,-9.37255 14.55578,-13.98576 11.8719,-17.49543 l -16.24576,-21.24446 z"
         style="fill:#f2d6c6;fill-opacity:1;fill-rule:evenodd;stroke:none" />
      <path
         sodipodi:nodetypes="cssssc"
         id="path3371"
         d="m 320.88481,432.90241 c 0,0 5.62354,1.24969 7.49805,4.9987 1.8745,3.74905 -1.87451,6.87322 4.37386,8.74774 6.24838,1.87449 11.24706,3.12418 19.99478,-6.24838 8.74772,-9.37255 14.55578,-13.98576 11.8719,-17.49543 l -16.24576,-21.24446"
         style="fill:none;stroke:#000000;stroke-width:5.97449255;stroke-linecap:butt;stroke-linejoin:miter;stroke-miterlimit:4;stroke-opacity:1;stroke-dasharray:none" />
      <path
         id="path3380"
         d="M 328.38286,469.7678 310.26259,448.52334"
         style="fill:none;stroke:#000000;stroke-width:3.98299479;stroke-linecap:round;stroke-linejoin:round;stroke-miterlimit:4;stroke-opacity:1;stroke-dasharray:none" />
      <path
         id="path3382"
         d="m 374.6208,449.1482 4.9987,-23.74381"
         style="fill:none;stroke:#000000;stroke-width:3.98299479;stroke-linecap:round;stroke-linejoin:round;stroke-miterlimit:4;stroke-opacity:1;stroke-dasharray:none" />
      <path
         id="path3384"
         d="m 311.51225,453.52204 c 0,0 -7.49804,18.12028 -8.12288,26.86799 -0.62483,8.74773 2.49935,28.11767 2.49935,28.11767"
         style="fill:none;stroke:#000000;stroke-width:3.98299479;stroke-linecap:round;stroke-linejoin:miter;stroke-miterlimit:4;stroke-opacity:1;stroke-dasharray:none" />
      <path
         id="path3386"
         d="m 305.88872,481.01489 c 0,0 19.36995,10.62222 43.11375,9.37254 23.74381,-1.24967 49.98697,-23.74381 53.11115,-24.36864 3.12418,-0.62484 13.12158,16.87059 11.24706,48.73728 -1.87449,31.86669 -17.49543,129.34126 -17.49543,129.34126"
         style="fill:none;stroke:#000000;stroke-width:3.98299479;stroke-linecap:round;stroke-linejoin:round;stroke-miterlimit:4;stroke-opacity:1;stroke-dasharray:none" />
      <path
         id="path3390"
         d="m 390.86656,492.26195 c 12.49674,0 6.24836,22.49412 -3.12419,20.6196 -9.37256,-1.87449 -7.49805,-16.87059 3.12419,-20.6196 z"
         style="fill:#020202;fill-opacity:1;fill-rule:evenodd;stroke:#000000;stroke-width:3.98299479;stroke-linecap:butt;stroke-linejoin:miter;stroke-miterlimit:4;stroke-opacity:1;stroke-dasharray:none" />
      <path
         id="path3400"
         d="m 390.86656,540.99922 c 11.87189,0.62484 6.24836,25.61833 -3.74902,25.61833 -9.9974,0 -9.9974,-28.11768 3.74902,-25.61833 z"
         style="fill:#020202;fill-opacity:1;fill-rule:evenodd;stroke:#000000;stroke-width:3.98299479;stroke-linecap:butt;stroke-linejoin:miter;stroke-miterlimit:4;stroke-opacity:1;stroke-dasharray:none" />
      <path
         id="path3402"
         d="m 387.11754,599.10907 c 10.62223,1.24966 3.74902,24.99347 -3.1242,23.74381 -6.8732,-1.24968 -9.99738,-23.74381 3.1242,-23.74381 z"
         style="fill:#020202;fill-opacity:1;fill-rule:evenodd;stroke:#000000;stroke-width:3.98299479;stroke-linecap:butt;stroke-linejoin:miter;stroke-miterlimit:4;stroke-opacity:1;stroke-dasharray:none" />
      <path
         sodipodi:nodetypes="ccc"
         id="path3405"
         d="m 300.26518,577.23975 -3.74901,-44.36341 6.24837,-28.7425"
         style="fill:none;stroke:#000000;stroke-width:14.93623066;stroke-linecap:round;stroke-linejoin:round;stroke-miterlimit:4;stroke-opacity:1;stroke-dasharray:none" />
      <path
         id="path3418"
         d="m 538.32808,389.78866 c 3.12417,1.87453 32.49152,10.62223 32.49152,10.62223 l 6.24838,-32.49151 -31.86669,-3.12419 -6.87321,24.99347 z"
         style="fill:#c6c2a3;fill-opacity:1;fill-rule:evenodd;stroke:none" />
      <path
         sodipodi:nodetypes="cssssccsssscssccccscsccsssc"
         id="path3416"
         d="m 356.50051,402.28541 c 0,0 24.59827,3.86614 24.9935,28.11766 0.0109,0.68268 56.23533,16.24578 78.10463,14.9961 21.86927,-1.24967 49.3621,-20.61963 56.86015,-26.868 7.49805,-6.24836 19.99479,-16.24576 23.74381,-29.36734 3.74901,-13.12158 5.62353,-28.11765 5.62353,-28.11765 l 32.49151,4.99868 c 0,0 1.24969,3.12421 -1.24966,14.37127 -2.49935,11.24706 -7.49805,26.24315 -14.9961,39.98955 -7.49804,13.74642 -18.78943,36.51589 -31.86669,45.61311 -14.37124,9.99739 -36.24052,18.74511 -47.48761,20.61963 -19.19564,3.19927 -48.73727,0.62483 -48.73727,0.62483 0,0 2.49934,31.24185 0,56.86015 -2.49936,25.61832 -6.87321,58.73468 -9.99741,71.85626 -3.12418,13.12158 -6.87319,25.61833 -6.87319,25.61833 l -6.87321,15.62092 -111.84583,4.99868 3.74904,-23.11896 c 0,0 -1.24969,-79.3543 -2.49935,-96.84975 -1.24969,-17.49542 1.8745,-39.36471 1.8745,-39.36471 0,0 -39.98956,27.49283 -73.73076,23.7438 -42.4522,-4.71688 -85.60267,-31.86667 -85.60267,-31.86667 l 29.36734,-32.49154 c 0,0 29.99217,24.36866 55.6105,23.74379 25.61831,-0.62482 39.98957,-6.87318 51.86146,-14.37123 11.8719,-7.49804 29.36734,-18.7451 31.86669,-23.7438 2.49935,-4.99871 3.74901,-13.74642 3.74901,-13.74642"
         style="fill:none;stroke:#000000;stroke-width:14.93623066;stroke-linecap:round;stroke-linejoin:round;stroke-miterlimit:4;stroke-opacity:1;stroke-dasharray:none" />
      <path
         sodipodi:nodetypes="cscscsssscssscssssc"
         id="path3421"
         d="m 120.31215,524.12863 c 0,0 25.6183,-23.11897 41.86406,-41.86409 16.24577,-18.74511 33.7412,-44.98826 33.7412,-44.98826 0,0 -24.36864,-9.37257 -56.86016,-49.36213 -32.49153,-39.98958 -32.49153,-64.35819 -32.49153,-64.35819 0,0 11.24707,-11.87191 16.24577,-24.36866 4.9987,-12.49672 8.12287,-19.99476 -1.87451,-24.36864 -9.99739,-4.37386 -31.241854,-4.9987 -38.739898,3.74901 -7.498044,8.74774 -5.623531,18.12029 0.624838,19.9948 6.248369,1.87452 23.11897,0 23.11897,0 0,0 6.8732,0.62483 4.37385,8.12288 -2.49934,7.49804 -23.743797,5.62353 -24.993472,8.74771 -1.249672,3.12421 -6.873206,14.37127 -4.373858,21.24445 2.499346,6.87323 11.871902,14.37127 11.871902,14.37127 0,0 -0.624838,25.61831 -3.124184,38.73988 -2.49935,13.12159 -0.624839,24.9935 -6.873208,28.74251 -6.248369,3.74904 -9.372554,11.24706 -5.623532,21.8693 3.749022,10.62223 4.998696,23.11896 16.245762,41.86407 11.24706,18.74512 31.24185,41.23924 26.868,41.86409 z"
         style="fill:#020202;fill-opacity:1;fill-rule:evenodd;stroke:#000000;stroke-width:14.93623066;stroke-linecap:round;stroke-linejoin:round;stroke-miterlimit:4;stroke-opacity:1;stroke-dasharray:none" />
      <path
         id="path3423"
         d="m 162.17621,417.28152 c 0,0 -18.74511,28.74247 -31.24185,38.73987 -12.49673,9.9974 -31.866678,28.74251 -31.866678,28.74251 l 13.746408,19.99477 c 0,0 26.86799,-26.86799 38.7399,-41.23924 11.87191,-14.37123 24.36864,-34.36603 24.36864,-34.36603 l -13.74642,-11.87188 z"
         style="fill:#f6c612;fill-opacity:1;fill-rule:evenodd;stroke:#000000;stroke-width:1.9914974px;stroke-linecap:butt;stroke-linejoin:miter;stroke-opacity:1" />
      <path
         sodipodi:nodetypes="cssssscsscsscsccccccccccccccssssssc"
         id="path3428"
         d="m 66.833795,289.87778 c 0,0 -9.034752,-4.51735 -19.073366,-2.50965 -10.038613,2.00773 -15.952589,4.55463 -20.579159,14.55599 -3.045842,6.58427 6.5251,10.54054 6.5251,15.55985 0,5.01931 -7.027029,6.02318 -9.034751,10.03862 -2.918114,5.83622 -2.807184,11.87404 0,13.0502 7.663006,3.21067 10.038613,11.54438 10.038613,11.54438 0,0 1.087068,5.30596 -6.023168,8.53284 -0.919002,0.41708 1.003862,5.52122 4.517377,9.03475 4.139026,4.13903 12.548263,6.5251 12.548263,6.5251 0,0 -4.015444,18.57143 0.501934,27.10426 4.517375,8.53281 2.509653,13.05021 11.544405,17.56758 9.034752,4.51737 18.571435,6.52509 18.571435,6.52509 0,0 -2.007722,3.5135 -1.003862,7.02704 1.003862,3.51351 2.007724,8.03089 2.007724,8.03089 l 2.007723,6.52509 7.027028,3.51352 40.154459,-47.68342 -18.06951,-57.72203 -12.548265,-9.03476 -3.513515,32.12357 -4.517376,35.6371 -8.532821,11.04245 -12.046337,8.03089 -16.061782,-6.52507 -3.011584,-17.5676 -2.007722,-22.08496 -1.003861,-2.50964 c 0,0 12.548266,-1.00385 16.563714,-3.01158 4.015444,-2.00773 7.528959,-2.50967 9.03475,-8.53284 1.50579,-6.02316 1.003863,-5.52124 -3.011584,-9.03473 -4.015446,-3.51354 -5.521237,-11.54443 -3.011584,-15.05792 2.509653,-3.51352 5.019306,-0.50194 5.019306,-6.5251 0,-6.02317 4.015447,-20.57915 2.509652,-25.09653 -1.50579,-4.51738 -6.525096,-18.57146 -5.521236,-19.07338 z"
         style="fill:#000000;fill-opacity:1;fill-rule:evenodd;stroke:#000000;stroke-width:14.93623066;stroke-linecap:round;stroke-linejoin:round;stroke-miterlimit:4;stroke-opacity:1;stroke-dasharray:none" />
      <path
         id="path3432"
         d="m 35.714094,353.12106 c 0,0 17.065642,0 22.586879,-1.00389 5.521238,-1.00384 8.532822,-3.51349 8.532822,-3.51349"
         style="fill:none;stroke:#ffffff;stroke-width:1.9914974px;stroke-linecap:butt;stroke-linejoin:miter;stroke-opacity:1" />
      <path
         sodipodi:nodetypes="csc"
         id="path3440"
         d="m 53.246331,208.60307 c 0,0 12.288468,3.07212 18.944722,2.04807 6.656253,-1.02403 17.408662,-6.65626 17.408662,-6.65626"
         style="fill:none;stroke:#000000;stroke-width:3.98299479;stroke-linecap:round;stroke-linejoin:round;stroke-miterlimit:4;stroke-opacity:1;stroke-dasharray:none" />
      <path
         id="path3442"
         d="m 63.99874,225.4997 c 5.120194,0 4.608176,6.65625 4.608176,6.65625 l 0,22.52887 c 0,0 0,3.58412 -3.072117,4.09616 -3.072118,0.51201 -6.144234,-3.58415 -6.144234,-3.58415 l 1.024039,-26.11299 c 0,0 0,-3.58414 3.584136,-3.58414 z"
         style="fill:#fefefe;fill-opacity:1;fill-rule:evenodd;stroke:none" />
      <path
         transform="matrix(1.991498,0,0,1.991498,4.092461,2.444287)"
         sodipodi:end="6.1738297"
         sodipodi:start="0"
         d="m 32.137844,134.75746 c 0,1.34894 -0.863316,2.44248 -1.92827,2.44248 -1.064955,0 -1.928271,-1.09354 -1.928271,-2.44248 0,-1.34894 0.863316,-2.44247 1.928271,-2.44247 0.983507,0 1.809414,0.93757 1.916752,2.17591 l -1.916752,0.26656 z"
         sodipodi:ry="2.4424763"
         sodipodi:rx="1.9282707"
         sodipodi:cy="134.75746"
         sodipodi:cx="30.209574"
         id="path3446"
         style="opacity:0;color:#000000;fill:#fefefe;fill-opacity:1;fill-rule:nonzero;stroke:none;stroke-width:2;marker:none;visibility:visible;display:inline;overflow:visible"
         sodipodi:type="arc" />
      <path
         transform="matrix(1.991498,0,0,1.991498,4.092461,2.444287)"
         d="m 32.394947,134.37181 c 0,1.41994 -1.093534,2.57103 -2.442476,2.57103 -1.348943,0 -2.442476,-1.15109 -2.442476,-2.57103 0,-1.41994 1.093533,-2.57103 2.442476,-2.57103 1.348942,0 2.442476,1.15109 2.442476,2.57103 z"
         sodipodi:ry="2.5710275"
         sodipodi:rx="2.4424763"
         sodipodi:cy="134.37181"
         sodipodi:cx="29.952471"
         id="path3449"
         style="color:#000000;fill:#fefefe;fill-opacity:1;fill-rule:nonzero;stroke:none;stroke-width:2;marker:none;visibility:visible;display:inline;overflow:visible"
         sodipodi:type="arc" />
      <path
         id="path3452"
         d="m 57.890501,162.33114 c 10.446221,0.52231 12.535466,13.05779 2.611557,15.14702 -9.923911,2.08924 -9.923911,-3.65617 -9.923911,-7.31235 0,-3.65617 6.790042,-6.79005 7.312354,-7.83467 z"
         style="fill:none;stroke:#69c5b3;stroke-width:3.98299479;stroke-linecap:round;stroke-linejoin:round;stroke-miterlimit:4;stroke-opacity:1;stroke-dasharray:none" />
      <path
         id="path3454"
         d="m 87.139921,157.63034 c 0,0 7.834667,6.26773 6.267735,8.8793 -1.566935,2.61155 -4.178491,5.2231 -8.35698,4.70079 -4.178487,-0.52232 -8.356975,-2.61155 -5.745421,-8.35698 2.611556,-5.74542 3.133868,-5.22311 7.834666,-5.22311 z"
         style="fill:none;stroke:#69c5b3;stroke-width:3.98299479;stroke-linecap:round;stroke-linejoin:round;stroke-miterlimit:4;stroke-opacity:1;stroke-dasharray:none" />
      <path
         id="path3456"
         d="m 102.80926,111.14466 c 7.31235,0.5223 19.84781,22.45937 0,23.504 -19.847827,1.04462 -13.057782,-23.504 0,-23.504 z"
         style="fill:none;stroke:#69c5b3;stroke-width:3.98299479;stroke-linecap:round;stroke-linejoin:round;stroke-miterlimit:4;stroke-opacity:1;stroke-dasharray:none" />
      <path
         sodipodi:nodetypes="csc"
         id="path3458"
         d="m 65.725168,122.1132 c 15.669332,0 19.528307,26.11555 2.611556,26.11555 -16.713954,0 -17.758577,-23.504 -2.611556,-26.11555 z"
         style="fill:none;stroke:#69c5b3;stroke-width:3.98299479;stroke-linecap:round;stroke-linejoin:round;stroke-miterlimit:4;stroke-opacity:1;stroke-dasharray:none" />
      <path
         id="path3460"
         d="m 76.171388,80.328305 c 13.057777,0 11.490845,19.847825 0,19.32551 -11.490842,-0.522311 -14.102398,-14.1024 0,-19.32551 z"
         style="fill:none;stroke:#69c5b3;stroke-width:3.98299479;stroke-linecap:round;stroke-linejoin:round;stroke-miterlimit:4;stroke-opacity:1;stroke-dasharray:none" />
      <path
         id="path3464"
         d="m 84.528367,40.632663 c 13.580086,0.52231 9.401599,18.280887 0,19.847821 -9.4016,1.566932 -16.713955,-15.669332 0,-19.847821 z"
         style="fill:none;stroke:#69c5b3;stroke-width:3.98299479;stroke-linecap:round;stroke-linejoin:round;stroke-miterlimit:4;stroke-opacity:1;stroke-dasharray:none" />
      <path
         id="path4361"
         d="m 495.97714,350.57136 c 0,0 7.06576,7.06576 64.67877,15.21852 57.61302,8.1528 69.57044,4.34816 69.57044,4.34816 L 616.63838,221.75737 c 0,0 8.15278,3.80462 24.45835,2.71757 16.30557,-1.08703 33.15466,-10.32685 41.30745,-15.76204 8.15279,-5.43521 17.3926,-34.78521 17.3926,-34.78521 0,0 -10.32685,-1.63056 -16.84909,3.26111 -6.52224,4.89167 -21.74076,19.02316 -30.98058,19.56668 -9.23981,0.54352 -21.19725,0.54352 -21.19725,-4.34815 0,-4.89167 14.67503,-14.13149 22.8278,-25.00188 8.1528,-10.87037 11.95743,-25.54538 11.95743,-30.43705 0,-4.89168 -4.34816,-19.02318 -10.87039,-21.74077 -6.52223,-2.71759 -10.32685,-4.89167 -14.13149,-0.54351 -3.80464,4.34814 -0.54351,8.69629 0.54352,15.76204 1.08705,7.06575 3.26112,20.11021 -5.43519,29.35003 -8.69632,9.23982 -16.30557,17.39261 -21.19725,18.47965 -4.89167,1.08704 -12.50095,2.17407 -12.50095,-1.63056 0,-3.80464 8.1528,-17.39261 9.78336,-26.63243 1.63056,-9.23983 6.52223,-21.19724 -5.4352,-33.69818 -11.9574,-12.50094 -22.82779,-15.76205 -29.89352,-14.67501 -7.06576,1.08704 -20.65372,3.80464 -20.1102,11.4139 0.54349,7.60926 2.17406,6.52223 16.30556,11.95741 14.13148,5.43519 17.39261,12.50094 19.02316,21.19724 1.63056,8.69631 0,21.74076 -9.78335,28.80651 -9.78333,7.06575 -19.56669,13.04445 -29.89353,11.41391 -10.32687,-1.63056 -13.58798,-8.15279 -11.41392,-14.1315 2.17408,-5.97871 7.60928,-9.78334 8.69632,-13.04446 1.08704,-3.26111 2.17408,-9.78334 -8.69632,-7.06574 -10.87036,2.71759 -18.47964,10.32686 -19.56667,19.02317 -1.08704,8.69629 -4.34816,16.30556 0.54352,25.54538 4.89167,9.23982 16.84909,11.95742 28.80651,12.50094 11.9574,0.54352 15.76204,2.17407 16.84909,6.52223 1.08704,4.34815 -10.32688,26.08891 -18.47965,42.39448 -8.1528,16.30557 -34.2417,56.52597 -42.938,71.201 -8.6963,14.67501 -10.87039,14.67501 -9.78336,21.19723 z"
         style="fill:#020202;fill-opacity:1;fill-rule:evenodd;stroke:#000000;stroke-width:5.97449255;stroke-linecap:round;stroke-linejoin:round;stroke-miterlimit:4;stroke-opacity:1;stroke-dasharray:none" />
      <path
         id="path4363"
         d="m 529.13182,304.37224 -11.41391,20.65373 c 0,0 15.76207,12.50093 42.938,16.84908 27.17596,4.34815 57.06951,1.63055 57.06951,1.63055 l 0,-20.65371 c 0,0 -20.11021,4.89168 -48.3732,-2.7176 -28.26298,-7.60925 -40.76391,-14.13148 -40.2204,-15.76205 z"
         style="fill:#f6c612;fill-opacity:1;fill-rule:evenodd;stroke:#000000;stroke-width:1.9914974px;stroke-linecap:round;stroke-linejoin:round;stroke-opacity:1" />
      <path
         id="path4365"
         d="m 573.70038,196.75548 c 0,0 9.78333,-6.52223 26.08891,-1.08704 16.30557,5.4352 15.21853,11.4139 15.21853,11.4139"
         style="fill:none;stroke:#ffffff;stroke-width:1.9914974;stroke-linecap:round;stroke-linejoin:round;stroke-miterlimit:4;stroke-opacity:1;stroke-dasharray:none" />
      <path
         sodipodi:nodetypes="csc"
         id="path5255"
         d="m 38.535308,316.94479 c 0,0 10.824893,1.96818 21.64979,0.49204 10.824892,-1.47612 20.173665,-11.31695 20.173665,-11.31695"
         style="fill:none;stroke:#ffffff;stroke-width:1.9914974px;stroke-linecap:butt;stroke-linejoin:miter;stroke-opacity:1" />
      <path
         id="path5257"
         d="m 73.962235,291.35868 c 0,0 -0.984081,8.3647 4.920406,12.301 5.904486,3.93634 8.856733,3.4443 8.856733,3.4443 0,0 -6.396528,-0.49204 -7.872653,4.42835 -1.476122,4.92042 -1.476122,13.28511 -1.476122,13.28511"
         style="fill:none;stroke:#ffffff;stroke-width:1.9914974px;stroke-linecap:butt;stroke-linejoin:miter;stroke-opacity:1" />
    </g>
  </g>
</svg>
